# xmcd
#
# Track frame offsets:
#	150
#	15975
#	29670
#	44872
#	61524
#	80915
#	99780
#	113070
#	125465
#	153570
#
# Disc length: 2480 seconds
#
# Revision: 1
# Processed by: cddbd v1.5.2PL0 Copyright (c) Steve Scherf et al.
# Submitted via: EasyCDDAExtractor 8.2.3.1
#
DISCID=7a09ae0a
DTITLE=Hank Williams Jr  - Hog Wild
DYEAR=1995
DGENRE=Country
TTITLE0=Hog Wild
TTITLE1=I Ain't Going Peacefully
TTITLE2=Between Heaven And Hell
TTITLE3=Iron Horse
TTITLE4=Daytona Nights
TTITLE5=Tobacco Road
TTITLE6=It's A Start
TTITLE7=Greeted In Enid
TTITLE8=Eyes Of Waylon
TTITLE9=Wild Thing
EXTD=
EXTT0=
EXTT1=
EXTT2=
EXTT3=
EXTT4=
EXTT5=
EXTT6=
EXTT7=
EXTT8=
EXTT9=
PLAYORDER=
